<?xml version="1.0" encoding="UTF-8" standalone="no"?>
<!DOCTYPE svg PUBLIC "-//W3C//DTD SVG 1.1//EN" "http://www.w3.org/Graphics/SVG/1.1/DTD/svg11.dtd">
<svg width="100%" height="100%" viewBox="0 0 64 64" version="1.1" xmlns="http://www.w3.org/2000/svg" xmlns:xlink="http://www.w3.org/1999/xlink" xml:space="preserve" style="fill-rule:evenodd;clip-rule:evenodd;stroke-linejoin:round;stroke-miterlimit:1.5;">
	<path class="top-link" d="M41.125,28.65C42.217,29.743 42.911,29.768 44.299,30.024C46.403,30.411 48.605,29.83 50.175,28.26L58.508,19.927C61.113,17.322 60.996,12.975 58.247,10.225L54.775,6.754C52.025,4.004 47.678,3.887 45.073,6.492L36.74,14.825C34.135,17.43 33.638,21.163 36.387,23.912" style="fill:none;stroke:#000;stroke-width:3px;"/>
	<path class="middle-link" d="M23.938,41.052L41.167,23.823" style="fill:none;stroke:#000;stroke-width:3px;stroke-linecap:round;"/>
	<path class="bottom-link" d="M23.875,36.35C22.783,35.257 22.089,35.232 20.701,34.976C18.597,34.589 16.395,35.17 14.825,36.74L6.492,45.073C3.887,47.678 4.004,52.025 6.753,54.775L10.225,58.246C12.975,60.996 17.322,61.113 19.927,58.508L28.26,50.175C30.865,47.57 31.362,43.837 28.613,41.088" style="fill:none;stroke:#000;stroke-width:3px;"/>
</svg>
