<?xml version="1.0" encoding="UTF-8" standalone="no"?>
<!DOCTYPE svg PUBLIC "-//W3C//DTD SVG 1.1//EN" "http://www.w3.org/Graphics/SVG/1.1/DTD/svg11.dtd">
<svg width="100%" height="100%" viewBox="0 0 64 64" version="1.1" xmlns="http://www.w3.org/2000/svg" xmlns:xlink="http://www.w3.org/1999/xlink" xml:space="preserve" style="fill-rule:evenodd;clip-rule:evenodd;stroke-linejoin:round;stroke-miterlimit:1.41421;">
    <path class="wrench" d="M38.017,19.362C37.493,18.125 37.203,16.765 37.203,15.338C37.203,9.636 41.832,5.006 47.534,5.006C48.278,5.006 49.003,5.085 49.702,5.235L44.72,10.216C42.53,12.406 42.53,15.962 44.72,18.152C46.91,20.342 50.466,20.342 52.656,18.152L57.637,13.17C57.787,13.869 57.866,14.594 57.866,15.338C57.866,21.04 53.236,25.669 47.534,25.669C46.107,25.669 44.747,25.379 43.51,24.855L23.714,44.651C24.238,45.888 24.528,47.248 24.528,48.675C24.528,54.377 19.899,59.006 14.197,59.006C13.454,59.006 12.729,58.928 12.03,58.778L17.011,53.797C19.201,51.607 19.201,48.051 17.011,45.861C14.821,43.671 11.265,43.671 9.075,45.861L4.094,50.842C3.944,50.143 3.866,49.418 3.866,48.675C3.866,42.973 8.495,38.344 14.197,38.344C15.624,38.344 16.984,38.634 18.221,39.158L38.017,19.362Z" style="stroke:#000;stroke-width:1px;"/>
</svg>
