<?xml version="1.0" encoding="UTF-8" standalone="no"?>
<!DOCTYPE svg PUBLIC "-//W3C//DTD SVG 1.1//EN" "http://www.w3.org/Graphics/SVG/1.1/DTD/svg11.dtd">
<svg width="100%" height="100%" viewBox="0 0 65 65" version="1.1" xmlns="http://www.w3.org/2000/svg" xmlns:xlink="http://www.w3.org/1999/xlink" xml:space="preserve" style="fill-rule:evenodd;clip-rule:evenodd;stroke-linecap:round;stroke-linejoin:round;stroke-miterlimit:1.5;">
    <rect x="17.058" y="10.783" width="30.884" height="43.433" style="fill:#fff;"/>
    <path d="M47.942,7.823C47.942,5.812 46.309,4.179 44.297,4.179L20.703,4.179C18.691,4.179 17.058,5.812 17.058,7.823L17.058,57.177C17.058,59.188 18.691,60.821 20.703,60.821L44.297,60.821C46.309,60.821 47.942,59.188 47.942,57.177L47.942,7.823Z" style="fill:#fff;stroke:#000;stroke-width:2.08px;"/>
    <rect class="content1" x="20.5" y="3.962" width="24" height="6.8" style="fill:#ebebeb;stroke:#000;stroke-width:0.5px;"/>
    <rect class="content2" x="20.5" y="3.962" width="24" height="6.8" style="fill:#ebebeb;stroke:#000;stroke-width:0.5px;"/>
    <rect class="content3" x="20.5" y="3.962" width="24" height="6.8" style="fill:#ebebeb;stroke:#000;stroke-width:0.5px;"/>
    <path d="M44.297,60.821L20.703,60.821C18.691,60.821 17.058,59.097 17.058,56.975L17.058,53.621L47.942,53.621L47.942,56.975C47.942,59.097 46.309,60.821 44.297,60.821ZM35.5,57.035L29.5,57.035C28.948,57.035 28.5,57.508 28.5,58.09C28.5,58.673 28.948,59.146 29.5,59.146L35.5,59.146C36.052,59.146 36.5,58.673 36.5,58.09C36.5,57.508 36.052,57.035 35.5,57.035Z"/>
    <path d="M44.297,3.962C46.309,3.962 47.942,5.686 47.942,7.808L47.942,11.162L17.058,11.162L17.058,7.808C17.058,5.686 18.691,3.962 20.703,3.962L44.297,3.962ZM36.1,6.519L28.9,6.519C28.569,6.519 28.3,6.803 28.3,7.152C28.3,7.501 28.569,7.785 28.9,7.785L36.1,7.785C36.431,7.785 36.7,7.501 36.7,7.152C36.7,6.803 36.431,6.519 36.1,6.519ZM38.992,6.519C39.313,6.519 39.574,6.794 39.574,7.133C39.574,7.473 39.313,7.748 38.992,7.748C38.67,7.748 38.409,7.473 38.409,7.133C38.409,6.794 38.67,6.519 38.992,6.519ZM26.008,6.519C26.33,6.519 26.591,6.794 26.591,7.133C26.591,7.473 26.33,7.748 26.008,7.748C25.687,7.748 25.426,7.473 25.426,7.133C25.426,6.794 25.687,6.519 26.008,6.519Z"/>
</svg>
